# xmcd
#
# Track frame offsets:
#	150
#	14264
#	71817
#	89269
#	109100
#	126876
#	136207
#
# Disc length: 1995 seconds
#
# Revision: 1
# Processed by: cddbd v1.5.1PL0 Copyright (c) Steve Scherf et al.
# Submitted via: CDex 1.50Beta5
#
DISCID=5b07c907
DTITLE=岡田克彦ほか - 2ch＋ Vol2
DYEAR=1900
DGENRE=Soundtrack
TTITLE0=岡田克彦/朝の海＆村の鐘
TTITLE1=岡田克彦/宇高連絡船
TTITLE2=岡田克彦/青空の散歩&静けさ
TTITLE3=岡田克彦/家路
TTITLE4=K(ケイ）/Moon
TTITLE5=K(ケイ）/獣の王が月を待つ
TTITLE6=N.Y.O N.Y.O N.Y.O N.Y.O/緑流-Ryokuryu-
EXTD=
EXTT0=
EXTT1=
EXTT2=
EXTT3=
EXTT4=
EXTT5=
EXTT6=
PLAYORDER=
